<svg width="32" height="32" viewBox="0 0 32 32" fill="none" xmlns="http://www.w3.org/2000/svg">
<path d="M1 15.0004C1.00165 13.4096 1.63433 11.8845 2.75919 10.7596C3.88404 9.63476 5.40921 9.00209 7 9.00043H11.975C12.3388 8.97918 18.6775 8.53293 24.7137 3.47043C25.0052 3.22562 25.3605 3.06908 25.7379 3.0192C26.1153 2.96932 26.4991 3.02817 26.8441 3.18883C27.1892 3.3495 27.4813 3.6053 27.6861 3.92621C27.8908 4.24711 27.9997 4.61978 28 5.00043V25.0004C27.9999 25.3812 27.8912 25.754 27.6866 26.0751C27.4819 26.3962 27.1898 26.6522 26.8447 26.813C26.4996 26.9738 26.1157 27.0328 25.7382 26.983C25.3607 26.9331 25.0053 26.7766 24.7137 26.5317C19.9925 22.5717 15.0887 21.4367 13 21.1192V25.0842C13.0004 25.4137 12.9194 25.7383 12.7641 26.029C12.6088 26.3197 12.3841 26.5675 12.11 26.7504L10.735 27.6667C10.4692 27.8441 10.1648 27.9552 9.84728 27.9908C9.52974 28.0263 9.2083 27.9853 8.90987 27.8711C8.61145 27.7569 8.34473 27.5728 8.13206 27.3344C7.91938 27.0959 7.76694 26.8099 7.6875 26.5004L6.21625 20.9554C4.77284 20.7634 3.44828 20.0537 2.48882 18.9584C1.52937 17.863 1.00031 16.4566 1 15.0004ZM26 24.9917V5.00043C20.6487 9.48918 15.1713 10.6254 13 10.9054V19.0904C15.1687 19.3754 20.645 20.5092 26 24.9917ZM9.625 25.9917V26.0054L11 25.0892V21.0004H8.3L9.625 25.9917ZM7 19.0004H11V11.0004H7C5.93913 11.0004 4.92172 11.4219 4.17157 12.172C3.42143 12.9222 3 13.9396 3 15.0004C3 16.0613 3.42143 17.0787 4.17157 17.8289C4.92172 18.579 5.93913 19.0004 7 19.0004Z" fill="#333333"/>
</svg>
